SplineFontDB: 3.0
FontName: pNeuBau
FullName: pNeuBau
FamilyName: pNeuBau
Weight: Regular
Copyright: tam kien duong\nCC-BY-SA-NC
UComments: "2014-7-27: Created with FontForge (http://fontforge.org)" 
Version: 001.000
ItalicAngle: 0
UnderlinePosition: -100
UnderlineWidth: 50
Ascent: 800
Descent: 200
LayerCount: 2
Layer: 0 0 "Back"  1
Layer: 1 0 "Fore"  0
XUID: [1021 169 -367430369 11711174]
FSType: 0
OS2Version: 0
OS2_WeightWidthSlopeOnly: 0
OS2_UseTypoMetrics: 1
CreationTime: 1406452203
ModificationTime: 1406464453
OS2TypoAscent: 0
OS2TypoAOffset: 1
OS2TypoDescent: 0
OS2TypoDOffset: 1
OS2TypoLinegap: 90
OS2WinAscent: 0
OS2WinAOffset: 1
OS2WinDescent: 0
OS2WinDOffset: 1
HheadAscent: 0
HheadAOffset: 1
HheadDescent: 0
HheadDOffset: 1
Lookup: 258 0 0 "pairs"  {} []
MarkAttachClasses: 1
DEI: 91125
Encoding: ISO8859-1
UnicodeInterp: none
NameList: AGL For New Fonts
DisplaySize: -48
AntiAlias: 1
FitToEm: 1
WinInfo: 0 15 11
BeginPrivate: 0
EndPrivate
BeginChars: 256 28

StartChar: A
Encoding: 65 65 0
Width: 794
VWidth: 0
Flags: W
HStem: 273.512 47.79<719.411 794.268>
VStem: 191.13 47.4609<-0.109091 15.9512> 729.997 47.6748<-0.783312 15.9512>
LayerCount: 2
Fore
SplineSet
484.940429688 797.3828125 m 0
 494.170898438 797.139648438 504.19140625 789.888671875 507.305664062 781.1953125 c 2
 653.881627515 372.715656812 l 1
 691.246360931 353.748118489 731.904610353 336.671279428 777.168945312 321.301757812 c 0
 786.684570312 318.368164062 794.40625 307.905273438 794.40625 297.94921875 c 0
 794.40625 284.458984375 783.458984375 273.51171875 769.96875 273.51171875 c 0
 767.544921875 273.51171875 763.732421875 274.1953125 761.4609375 275.0390625 c 0
 731.685111643 285.149541521 703.686154135 296.06778126 677.176355472 307.797629112 c 1
 775.971679688 32.4736328125 l 2
 776.91015625 30.0908203125 777.671875 26.080078125 777.671875 23.51953125 c 0
 777.671875 10.029296875 766.72265625 -0.9189453125 753.232421875 -0.9189453125 c 0
 743.439453125 -0.9189453125 733.029296875 6.6396484375 729.997070312 15.951171875 c 2
 614.174134764 338.633755239 l 1
 535.981354802 380.820676454 470.804044708 431.486599098 408.983974146 490.760677796 c 1
 238.590820312 15.951171875 l 2
 235.383789062 7.0146484375 225.07421875 -0.2392578125 215.578125 -0.2392578125 c 0
 202.08203125 -0.2392578125 191.129882812 10.71484375 191.129882812 24.2109375 c 0
 191.129882812 26.560546875 191.7734375 30.2626953125 192.568359375 32.4736328125 c 2
 358.32643003 494.327955337 l 1
 224.416236581 442.355938946 133.156699632 373.182804024 42.3828125 280.977539062 c 0
 38.3916015625 276.766601562 30.4453125 273.348632812 24.642578125 273.348632812 c 0
 11.15234375 273.348632812 0.205078125 284.295898438 0.205078125 297.786132812 c 0
 0.205078125 303.466796875 3.50390625 311.298828125 7.56640625 315.267578125 c 0
 109.848169982 419.160251229 217.908664866 498.535567323 379.8708989 554.357648219 c 1
 461.282226562 781.1953125 l 2
 464.485351562 790.135742188 474.7734375 797.3828125 484.26953125 797.3828125 c 0
 484.44921875 797.3828125 484.760742188 797.3828125 484.940429688 797.3828125 c 0
588.658637173 409.719906176 m 1
 484.26953125 700.547851562 l 1
 427.042516854 541.08175906 l 1
 477.97970564 490.516182022 529.512330628 447.055742276 588.658637173 409.719906176 c 1
EndSplineSet
EndChar

StartChar: H
Encoding: 72 72 1
Width: 912
VWidth: 0
Flags: HW
HStem: -0.0888672 21G<133.75 145.306> 275.213 47.8379<750.188 797.294> 783.88 19.9883G<405.874 410.812>
VStem: 115.969 47.6895<0.108591 16.2061> 387.487 47.79<787.312 803.689> 592.554 47.6865<-2.00078 14.0889> 864.117 47.7422<785.195 801.57>
LayerCount: 2
Fore
SplineSet
400.240234375 562.232421875 m 0
 400.302734375 562.232421875 400.401367188 562.232421875 400.462890625 562.232421875 c 0
 406.134765625 562.232421875 413.969726562 558.95703125 417.950195312 554.916992188 c 0
 503.538312298 468.150056819 589.381728741 401.612334925 708.545645729 350.630646849 c 1
 864.1171875 785.1953125 l 2
 867.265625 794.340820312 877.66796875 801.75 887.337890625 801.75 c 0
 887.530273438 801.75 887.842773438 801.75 888.03515625 801.75 c 0
 901.185546875 801.358398438 911.859375 790.361328125 911.859375 777.205078125 c 0
 911.859375 774.764648438 911.168945312 770.927734375 910.317382812 768.640625 c 2
 754.200479386 332.475312289 l 1
 762.895144016 329.265045733 771.762679085 326.12402496 780.813476562 323.05078125 c 0
 790.01953125 319.928710938 797.491210938 309.505859375 797.491210938 299.782226562 c 0
 797.491210938 286.220703125 786.484375 275.212890625 772.920898438 275.212890625 c 0
 770.682617188 275.212890625 767.147460938 275.796875 765.028320312 276.514648438 c 0
 755.731038655 279.671572894 746.605989172 282.90686426 737.644517173 286.220638532 c 1
 640.240234375 14.0888671875 l 2
 637.0234375 5.0986328125 626.663085938 -2.1982421875 617.114257812 -2.1982421875 c 0
 603.556640625 -2.1982421875 592.553710938 8.8056640625 592.553710938 22.36328125 c 0
 592.553710938 24.716796875 593.198242188 28.4267578125 593.9921875 30.6435546875 c 2
 691.98427679 304.369064084 l 1
 570.447623756 356.210280395 479.870951087 424.466525461 394.176757812 509.487304688 c 1
 372.26156877 501.859059737 351.45110484 493.830129258 331.589545933 485.378995239 c 1
 163.658203125 16.2060546875 l 2
 160.444335938 7.2109375 150.08203125 -0.0888671875 140.529296875 -0.0888671875 c 0
 126.971679688 -0.0888671875 115.96875 10.9150390625 115.96875 24.4716796875 c 0
 115.96875 26.830078125 116.614257812 30.54296875 117.41015625 32.7607421875 c 2
 268.780695341 455.665482603 l 1
 180.780721908 409.506482156 111.436870047 352.623903838 42.3828125 282.481445312 c 0
 38.3740234375 278.250976562 30.3876953125 274.81640625 24.5576171875 274.81640625 c 0
 11.0009765625 274.81640625 0 285.817382812 0 299.374023438 c 0
 0 305.081054688 3.3134765625 312.951171875 7.396484375 316.939453125 c 0
 90.2144613636 401.063916093 176.803766247 469.190092109 292.462148837 521.827623553 c 1
 387.487304688 787.3125 l 2
 390.634765625 796.458007812 401.038085938 803.868164062 410.708984375 803.868164062 c 0
 410.9140625 803.868164062 411.248046875 803.868164062 411.454101562 803.868164062 c 0
 424.603515625 803.475585938 435.27734375 792.478515625 435.27734375 779.322265625 c 0
 435.27734375 776.881835938 434.586914062 773.044921875 433.735351562 770.7578125 c 2
 353.713647682 547.190147944 l 1
 366.360631454 551.941745354 379.342453466 556.538673529 392.684570312 560.981445312 c 0
 394.71484375 561.65625 398.100585938 562.232421875 400.240234375 562.232421875 c 0
EndSplineSet
EndChar

StartChar: E
Encoding: 69 69 2
Width: 806
VWidth: 0
Flags: W
HStem: -0.0771484 21G<124.899 136.452 403.701 407.631> 239.121 47.8467<732.799 801.655> 514.396 47.9316<453.93 528.007 725.147 797.948> 783.868 20G<401.901 407.945>
VStem: 107.117 47.6846<0.120326 16.2061>
LayerCount: 2
Fore
SplineSet
504.526367188 562.328125 m 0
 517.59375 561.857421875 528.197265625 550.86328125 528.197265625 537.788085938 c 0
 528.197265625 527.890625 520.546875 517.411132812 511.119140625 514.396484375 c 0
 425.679304677 485.945925339 356.866304106 451.710675533 295.962958739 410.517696685 c 1
 202.179595781 148.548603216 l 1
 258.541116604 111.058489235 321.763211869 79.4129359277 398.5546875 52.6845703125 c 1
 500.583007812 153.911132812 609.48046875 231.37109375 769.357421875 285.658203125 c 0
 771.482421875 286.380859375 775.030273438 286.967773438 777.274414062 286.967773438 c 0
 790.842773438 286.967773438 801.852539062 275.958007812 801.852539062 262.389648438 c 0
 801.852539062 252.67578125 794.388671875 242.250976562 785.19140625 239.12109375 c 0
 626.608398438 185.275390625 524.239257812 110.620117188 422.280273438 7.2548828125 c 0
 418.299804688 3.21875 410.466796875 -0.0771484375 404.795898438 -0.0771484375 c 0
 402.606445312 -0.0771484375 399.142578125 0.501953125 397.0625 1.19140625 c 0
 314.721025902 28.6096962463 246.102449692 61.900185481 185.222903091 101.182745645 c 1
 154.801757812 16.2060546875 l 2
 151.584960938 7.21875 141.225585938 -0.0771484375 131.677734375 -0.0771484375 c 0
 118.120117188 -0.0771484375 107.1171875 10.927734375 107.1171875 24.4833984375 c 0
 107.1171875 26.8369140625 107.760742188 30.5458984375 108.553710938 32.7607421875 c 2
 143.357835546 129.980597446 l 1
 96.3646346998 164.363871784 53.5888320702 202.759730111 11.7744140625 245.233398438 c 0
 7.75390625 249.211914062 4.490234375 257.032226562 4.490234375 262.690429688 c 0
 4.490234375 276.245117188 15.4921875 287.24609375 29.0478515625 287.24609375 c 0
 29.0888671875 287.24609375 29.154296875 287.24609375 29.1953125 287.24609375 c 0
 34.9248046875 287.209960938 42.794921875 283.826171875 46.7607421875 279.690429688 c 0
 83.6906652449 242.179191805 120.70032339 208.461104951 160.601303713 178.147517265 c 1
 224.332287431 356.170009784 l 1
 197.311314635 333.39106186 171.302904345 308.872424048 145.321289062 282.481445312 c 0
 141.311523438 278.25 133.326171875 274.814453125 127.495117188 274.814453125 c 0
 113.938476562 274.814453125 102.9375 285.817382812 102.9375 299.372070312 c 0
 102.9375 305.081054688 106.250976562 312.951171875 110.333984375 316.939453125 c 0
 155.960935482 363.285756648 202.732371496 404.776279347 254.878566272 441.496241694 c 1
 360.416901979 736.301005132 l 1
 225.550342842 684.053377809 133.72516275 614.494654693 42.3818359375 521.7109375 c 0
 38.3720703125 517.48046875 30.38671875 514.046875 24.5576171875 514.046875 c 0
 11.0009765625 514.046875 0 525.047851562 0 538.604492188 c 0
 0 544.311523438 3.3134765625 552.180664062 7.39453125 556.168945312 c 0
 111.281460349 661.692785806 221.101589462 742.045359104 386.787827544 798.229752232 c 0
 391.190405172 801.686514041 396.65341586 803.868166139 401.901367188 803.868164062 c 0
 402.107421875 803.868164062 402.440429688 803.868164062 402.645507812 803.868164062 c 0
 413.245440197 803.551748171 422.234626338 796.346362818 425.323564951 786.673942471 c 1
 524.857289004 687.170758494 626.028019616 614.773689171 780.763671875 562.232421875 c 0
 790.327148438 559.28515625 798.086914062 548.770507812 798.086914062 538.765625 c 0
 798.086914062 525.208984375 787.083984375 514.208007812 773.529296875 514.208007812 c 0
 771.09375 514.208007812 767.262695312 514.896484375 764.978515625 515.743164062 c 0
 613.909962142 567.040637398 508.378539893 639.048619171 411.132643413 732.226120626 c 1
 322.451278944 484.508658544 l 1
 373.521212078 513.741090718 430.246807622 539.211907963 495.623046875 560.981445312 c 0
 497.78515625 561.733398438 501.397460938 562.328125 503.688476562 562.328125 c 0
 503.919921875 562.328125 504.295898438 562.328125 504.526367188 562.328125 c 0
EndSplineSet
EndChar

StartChar: L
Encoding: 76 76 3
Width: 792
VWidth: 0
Flags: W
HStem: -0.151367 48.0322<723.93 793.407>
VStem: 262.989 47.7979<785.467 801.891>
LayerCount: 2
Fore
SplineSet
395.69140625 287.1484375 m 0
 395.740234375 287.1484375 395.819335938 287.1484375 395.868164062 287.1484375 c 0
 401.540039062 287.1484375 409.375 283.872070312 413.356445312 279.83203125 c 0
 515.33203125 176.452148438 617.669921875 101.736328125 776.27734375 47.880859375 c 0
 785.840820312 44.9326171875 793.604492188 34.4169921875 793.604492188 24.41015625 c 0
 793.604492188 10.8515625 782.599609375 -0.1513671875 769.041015625 -0.1513671875 c 0
 766.606445312 -0.1513671875 762.775390625 0.537109375 760.490234375 1.3837890625 c 0
 600.612304688 55.671875 491.65625 133.129882812 389.626953125 234.346679688 c 1
 235.900390625 180.84375 136.5625 107.696289062 37.7763671875 7.3525390625 c 0
 35.4559460861 4.99232632042 31.8258505254 2.89087189747 28.0756467107 1.54665334434 c 0
 24.3040842686 -0.702786216687 20.0513488996 -2.04980468931 15.9482421875 -2.0498046875 c 0
 2.388671875 -2.0498046875 -8.6162109375 8.9560546875 -8.6162109375 22.5146484375 c 0
 -8.6162109375 24.8681640625 -7.97265625 28.578125 -7.1796875 30.79296875 c 2
 262.989257812 785.466796875 l 2
 266.137695312 794.614257812 276.541992188 802.024414062 286.21484375 802.024414062 c 0
 286.420898438 802.024414062 286.754882812 802.024414062 286.959960938 802.024414062 c 0
 300.11328125 801.631835938 310.787109375 790.633789062 310.787109375 777.475585938 c 0
 310.787109375 775.034179688 310.096679688 771.197265625 309.245117188 768.909179688 c 2
 72.526210678 107.672696129 l 1
 158.825258642 182.582922578 255.73045692 241.824527297 388.086914062 285.897460938 c 0
 390.130859375 286.577148438 393.538085938 287.1484375 395.69140625 287.1484375 c 0
EndSplineSet
EndChar

StartChar: O
Encoding: 79 79 4
Width: 807
VWidth: 0
Flags: W
HStem: 241.557 48.459<734.415 807.598> 520.214 48.6494<733.224 808.25> 791.2 20G<404.354 408.491>
LayerCount: 2
Fore
SplineSet
405.436523438 811.200195312 m 0
 405.487304688 811.200195312 405.569335937 811.200195312 405.618164062 811.200195312 c 0
 411.363281249 811.200195312 419.295898438 807.880859375 423.330078125 803.790039062 c 0
 526.611328125 699.083007812 630.26171875 623.41015625 790.904296875 568.86328125 c 0
 800.590820312 565.875976562 808.452148438 555.227539062 808.452148438 545.090820312 c 0
 808.452148438 531.358398438 797.306640625 520.213867188 783.575195312 520.213867188 c 0
 781.107421875 520.213867188 777.227539062 520.912109375 774.915039062 521.771484375 c 0
 757.013312511 527.849918748 739.742829433 534.215489184 723.043186238 540.868935756 c 1
 605.768690325 213.281251835 l 1
 656.023418025 242.041435411 711.511931188 267.16809483 774.915039062 288.697265625 c 0
 777.061523438 289.42578125 780.642578125 290.015625 782.91015625 290.015625 c 0
 796.6484375 290.015625 807.797851562 278.865234375 807.797851562 265.126953125 c 0
 807.797851562 255.278320312 800.229492188 244.71875 790.904296875 241.556640625 c 0
 630.26171875 187.009765625 526.611328125 111.384765625 423.330078125 6.6787109375 c 0
 419.295898438 2.587890625 411.361328125 -0.7294921875 405.618164062 -0.7294921875 c 0
 403.3984375 -0.7294921875 399.890625 -0.1630859375 397.78515625 0.5361328125 c 0
 226.602539062 57.537109375 113.969726562 139.590820312 7.4912109375 247.747070312 c 0
 3.4189453125 251.77734375 0.1123046875 259.69921875 0.1123046875 265.4296875 c 0
 0.1123046875 279.161132812 11.2568359375 290.306640625 24.9892578125 290.306640625 c 0
 25.0302734375 290.306640625 25.0966796875 290.306640625 25.1396484375 290.306640625 c 0
 30.9423828125 290.26953125 38.9150390625 286.840820312 42.931640625 282.65234375 c 0
 56.1539189796 269.221761274 69.3863118085 256.271198444 82.7545714066 243.783278016 c 1
 242.143779457 686.620799509 l 1
 166.922741277 643.01456012 104.818298333 590.676696316 42.931640625 527.81640625 c 0
 38.8701171875 523.529296875 30.78125 520.051757812 24.8759765625 520.051757812 c 0
 11.1435546875 520.051757812 0 531.1953125 0 544.927734375 c 0
 0 550.708984375 3.3564453125 558.6796875 7.4912109375 562.721679688 c 0
 84.323154911 640.764230259 164.359435329 705.216062199 267.284967669 756.471585589 c 1
 267.485351562 757.028320312 l 2
 267.846376127 757.028320312 325.229263193 784.457241052 329.053176841 784.461046743 c 0
 350.907987324 793.446552772 373.770427162 801.93611011 397.78515625 809.932617188 c 0
 399.841796875 810.615234375 403.270507812 811.200195312 405.436523438 811.200195312 c 0
537.346489831 169.789375952 m 1
 677.214513362 560.486577147 l 1
 565.888579012 611.604311927 480.477500594 677.276932097 399.344726562 757.76953125 c 1
 366.363370515 746.292305604 335.8532597 733.920670721 307.296398187 720.582710813 c 1
 123.66578035 207.460435821 l 1
 200.223613402 143.107436537 284.894952965 92.5160022441 399.294921875 52.69921875 c 1
 442.948089683 96.0087972347 487.843072667 135.023764898 537.346489831 169.789375952 c 1
EndSplineSet
EndChar

StartChar: N
Encoding: 78 78 5
Width: 897
VWidth: 0
Flags: HW
HStem: 1.50293 21G<592.923 604.6> 783.25 19.9883G<390.136 395.042>
VStem: 102.07 47.375<4.64373 20.6904> 575.259 47.6738<1.64028 18.5869> 845.356 47.4795<784.687 801.011>
LayerCount: 2
Fore
SplineSet
869.166992188 801.134765625 m 0
 882.233398438 800.744140625 892.8359375 789.819335938 892.8359375 776.748046875 c 0
 892.8359375 774.323242188 892.149414062 770.51171875 891.303710938 768.239257812 c 2
 622.932617188 18.5869140625 l 2
 619.969726562 9.1572265625 609.541992188 1.5029296875 599.657226562 1.5029296875 c 0
 586.188476562 1.5029296875 575.258789062 12.4326171875 575.258789062 25.9013671875 c 0
 575.258789062 28.517578125 576.053710938 32.609375 577.032226562 35.0341796875 c 2
 750.692590241 520.211772881 l 1
 603.932370981 571.528554064 500.71046882 643.010583549 405.214247828 735.138030753 c 1
 149.4453125 20.6904296875 l 2
 146.249023438 11.76171875 135.958007812 4.513671875 126.471679688 4.513671875 c 0
 113.002929688 4.513671875 102.0703125 15.4462890625 102.0703125 28.9150390625 c 0
 102.0703125 31.2529296875 102.709960938 34.9375 103.498046875 37.138671875 c 2
 352.998304979 734.07831109 l 1
 221.785761285 682.403445616 131.69822997 613.917168941 42.1064453125 522.913085938 c 0
 38.123046875 518.709960938 30.189453125 515.298828125 24.3974609375 515.298828125 c 0
 10.9296875 515.298828125 0 526.228515625 0 539.697265625 c 0
 0 545.3671875 3.2919921875 553.184570312 7.3466796875 557.147460938 c 0
 109.078746173 660.483449922 216.537055605 739.521597219 377.228098311 795.219741168 c 0
 381.922530504 800.022848091 388.589927154 803.23828237 394.940429688 803.23828125 c 0
 395.14453125 803.23828125 395.4765625 803.23828125 395.6796875 803.23828125 c 0
 402.061500805 803.047494604 407.855563388 800.343799902 412.113637262 796.104562691 c 0
 413.298385176 795.318160573 414.360516358 794.467657825 415.235351562 793.580078125 c 0
 514.674767246 692.770743759 614.460499199 619.400386184 767.130218814 566.135718332 c 1
 845.356445312 784.686523438 l 2
 848.483398438 793.772460938 858.818359375 801.134765625 868.427734375 801.134765625 c 0
 868.631835938 801.134765625 868.963867188 801.134765625 869.166992188 801.134765625 c 0
EndSplineSet
EndChar

StartChar: M
Encoding: 77 77 6
Width: 1366
VWidth: 0
Flags: W
VStem: 103.104 48.2969<-7.80825 9.2998> 1046.24 47.9951<-6.89404 9.2998> 1319.57 48.1006<785.414 801.879>
LayerCount: 2
Fore
SplineSet
1343.68945312 802.076171875 m 0
 1356.92480469 801.681640625 1367.66796875 790.61328125 1367.66796875 777.372070312 c 0
 1367.66796875 774.915039062 1366.97265625 771.053710938 1366.11621094 768.751953125 c 2
 1094.23632812 9.2998046875 l 2
 1090.99902344 0.2509765625 1080.57128906 -7.0927734375 1070.9609375 -7.0927734375 c 0
 1057.31445312 -7.0927734375 1046.24121094 3.982421875 1046.24121094 17.6279296875 c 0
 1046.24121094 19.9970703125 1046.88867188 23.7314453125 1047.6875 25.962890625 c 2
 1224.49885967 519.855976489 l 1
 1083.8962966 570.983832386 983.192270975 641.041625039 889.999928326 730.426608135 c 1
 631.077148438 7.1689453125 l 2
 629.087890625 0.83984375 624.436523438 -4.6044921875 618.495117188 -7.556640625 c 0
 612.5546875 -10.509765625 605.403320312 -10.9267578125 599.158203125 -8.6904296875 c 0
 592.913085938 -6.451171875 587.657226562 -1.587890625 584.943359375 4.466796875 c 0
 582.229492188 10.51953125 582.092773438 17.6796875 584.577148438 23.8310546875 c 2
 760.507055931 515.350856846 l 1
 611.828027897 567.338752737 507.25654315 639.755502783 410.512365016 733.086881542 c 1
 151.400390625 9.2998046875 l 2
 148.3984375 -0.2529296875 137.834960938 -8.0078125 127.8203125 -8.0078125 c 0
 114.17578125 -8.0078125 103.103515625 3.0654296875 103.103515625 16.708984375 c 0
 103.103515625 19.359375 103.909179688 23.505859375 104.900390625 25.962890625 c 2
 357.617703071 732.013416424 l 1
 224.688422283 679.663323004 133.422179773 610.282007537 42.658203125 518.087890625 c 0
 38.623046875 513.829101562 30.5849609375 510.372070312 24.716796875 510.372070312 c 0
 11.072265625 510.372070312 0 521.4453125 0 535.088867188 c 0
 0 540.833007812 3.3349609375 548.754882812 7.4443359375 552.768554688 c 0
 110.506525687 657.45559878 219.370043537 737.527774551 382.160932126 793.953761439 c 0
 386.916902229 798.819469017 393.671485388 802.076170228 400.104492188 802.076171875 c 0
 400.310546875 802.076171875 400.646484375 802.076171875 400.853515625 802.076171875 c 0
 407.318177031 801.88346744 413.188270731 799.144279847 417.502325573 794.849212286 c 0
 418.70235991 794.052630721 419.778122003 793.191107328 420.6640625 792.291992188 c 0
 521.403424873 690.165455198 622.494750046 615.836450707 777.159352198 561.874688313 c 1
 856.408203125 783.283203125 l 2
 859.8125 793.174804688 870.07421875 800.263671875 880.530273438 799.9453125 c 0
 888.047343458 799.720711958 895.361844111 795.8335849 899.789958401 789.762467979 c 0
 996.935839442 691.731246129 1094.81842013 619.487767283 1241.15091979 566.370733081 c 1
 1319.56738281 785.4140625 l 2
 1322.73535156 794.619140625 1333.20605469 802.076171875 1342.94042969 802.076171875 c 0
 1343.14648438 802.076171875 1343.48242188 802.076171875 1343.68945312 802.076171875 c 0
EndSplineSet
EndChar

StartChar: C
Encoding: 67 67 7
Width: 815
VWidth: 0
Flags: HW
HStem: 239.705 48.1504<733.087 802.359> 516.578 48.3359<750.77 820.685> 786 19.9883G<415.517 420.487 420.607 423.485>
VStem: 123.689 47.9912<-2.96923 13.2109>
LayerCount: 2
Fore
SplineSet
24.9150390625 288.142578125 m 0
 30.6650390625 288.095703125 38.5634765625 284.688476562 42.5458984375 280.538085938 c 0
 84.8187679727 237.599063724 127.200081915 199.596911311 173.849005851 165.957323895 c 1
 379.235691859 739.670824734 l 1
 244.113875702 687.133670194 151.954565375 617.254496757 60.2744140625 524.129882812 c 0
 56.2392578125 519.872070312 48.201171875 516.416015625 42.333984375 516.416015625 c 0
 28.6904296875 516.416015625 17.6162109375 527.489257812 17.6162109375 541.1328125 c 0
 17.6162109375 546.877929688 20.951171875 554.796875 25.060546875 558.811523438 c 0
 130.420754198 665.830870046 241.843882808 747.129290035 410.747545432 803.734962234 c 0
 413.844923243 805.167698732 417.154537068 805.988281062 420.3828125 805.98828125 c 0
 420.590820312 805.98828125 420.926757812 805.98828125 421.133789062 805.98828125 c 0
 427.501875862 805.797985732 433.293026582 803.136947891 437.588218671 798.951925905 c 0
 437.812538679 798.748503632 438.027542651 798.542736384 438.232421875 798.334960938 c 0
 540.8515625 694.299804688 643.836914062 619.111328125 803.451171875 564.9140625 c 0
 813.075195312 561.947265625 820.885742188 551.365234375 820.885742188 541.294921875 c 0
 820.885742188 527.650390625 809.8125 516.578125 796.168945312 516.578125 c 0
 793.716796875 516.578125 789.861328125 517.271484375 787.563476562 518.124023438 c 0
 635.135041628 569.882064583 528.767523672 642.589554125 430.690041241 736.711425764 c 1
 216.152945146 137.437007725 l 1
 268.527604118 104.511556994 327.043784958 76.2786564319 396.624023438 52.05859375 c 1
 499.313476562 153.942382812 608.96875 231.905273438 769.883789062 286.543945312 c 0
 772.016601562 287.267578125 775.575195312 287.85546875 777.827148438 287.85546875 c 0
 791.477539062 287.85546875 802.557617188 276.776367188 802.557617188 263.125 c 0
 802.557617188 253.33984375 795.036132812 242.848632812 785.771484375 239.705078125 c 0
 626.159179688 185.509765625 523.171875 110.369140625 420.552734375 6.3330078125 c 0
 416.543945312 2.2646484375 408.655273438 -1.0380859375 402.942382812 -1.0380859375 c 0
 400.727539062 -1.0380859375 397.223632812 -0.470703125 395.123046875 0.23046875 c 0
 319.939532636 25.2651639532 256.123023234 55.1641815887 199.176897218 90.01718417 c 1
 171.680664062 13.2109375 l 2
 168.439453125 4.169921875 158.013671875 -3.16796875 148.409179688 -3.16796875 c 0
 134.763671875 -3.16796875 123.689453125 7.9072265625 123.689453125 21.552734375 c 0
 123.689453125 23.9189453125 124.3359375 27.6474609375 125.131835938 29.8740234375 c 2
 156.619074824 117.828381162 l 1
 102.599944175 155.440717589 54.3619729107 198.086342943 7.33203125 245.856445312 c 0
 3.28515625 249.861328125 0 257.732421875 0 263.427734375 c 0
 0 277.071289062 11.072265625 288.142578125 24.716796875 288.142578125 c 0
 24.771484375 288.142578125 24.8603515625 288.142578125 24.9150390625 288.142578125 c 0
EndSplineSet
EndChar

StartChar: F
Encoding: 70 70 8
Width: 803
VWidth: 0
Flags: HW
HStem: 381.773 48.2441<475.976 500.481> 514.448 48.3369<733.203 803.118> 786 19.9893G<399.694 405.919>
VStem: 107.861 47.9971<-2.98194 13.2129>
LayerCount: 2
Fore
SplineSet
476.853515625 430.017578125 m 0
 490.00390625 429.543945312 500.678710938 418.477539062 500.678710938 405.317382812 c 0
 500.678710938 395.35546875 492.977539062 384.80859375 483.489257812 381.7734375 c 0
 387.012449012 349.648240922 311.580703694 310.210901358 244.826517046 261.775152998 c 1
 155.858398438 13.212890625 l 2
 152.620117188 4.1640625 142.192382812 -3.1806640625 132.58203125 -3.1806640625 c 0
 118.936523438 -3.1806640625 107.861328125 7.8935546875 107.861328125 21.5390625 c 0
 107.861328125 23.91015625 108.510742188 27.64453125 109.309570312 29.875 c 2
 170.813391433 201.675901943 l 1
 152.053603349 184.8197892 133.653071388 167.077580748 115.267578125 148.40234375 c 0
 111.205078125 143.911132812 102.993164062 140.265625 96.9375 140.265625 c 0
 83.29296875 140.265625 72.220703125 151.33984375 72.220703125 164.982421875 c 0
 72.220703125 170.904296875 75.728515625 178.9921875 80.0537109375 183.03515625 c 0
 119.368125332 222.968666706 159.5267144 259.320772848 203.200869355 292.145043815 c 1
 362.81670489 738.005870176 l 1
 227.042821396 685.415565521 134.609659432 615.399126998 42.66015625 522 c 0
 38.623046875 517.741210938 30.5849609375 514.283203125 24.716796875 514.283203125 c 0
 11.072265625 514.283203125 0 525.357421875 0 539 c 0
 0 544.74609375 3.3359375 552.666992188 7.4453125 556.681640625 c 0
 112.02489586 662.908070548 222.577891791 743.793299572 389.388428758 800.343765222 c 0
 393.812851843 803.805702858 399.294762216 805.989257452 404.560546875 805.989257812 c 0
 404.75390625 805.989257812 405.069335938 805.989257812 405.262695312 805.989257812 c 0
 415.904715993 805.672030899 424.935505161 798.454035794 428.065912605 788.754380877 c 1
 528.267829585 688.568162691 630.107337103 615.678991487 785.884765625 562.78515625 c 0
 795.508789062 559.818359375 803.319335938 549.236328125 803.319335938 539.165039062 c 0
 803.319335938 525.521484375 792.247070312 514.448242188 778.602539062 514.448242188 c 0
 776.150390625 514.448242188 772.294921875 515.140625 769.997070312 515.994140625 c 0
 617.947874302 567.623408789 511.687952948 640.09888345 413.807577137 733.880388578 c 1
 272.569575489 339.284686521 l 1
 329.345764284 373.961869142 392.955897938 403.724314391 467.84375 428.661132812 c 0
 470.020507812 429.419921875 473.66015625 430.017578125 475.96484375 430.017578125 c 0
 476.209960938 430.017578125 476.608398438 430.017578125 476.853515625 430.017578125 c 0
EndSplineSet
EndChar

StartChar: I
Encoding: 73 73 9
Width: 1005
VWidth: 0
Flags: W
HStem: 0.898438 21G<376.896 380.655> 229.263 45.8428<0.06839 70.8869> 525.426 45.8418<936.767 1005.68> 784.078 20G<627.086 636.879>
LayerCount: 2
Fore
SplineSet
737.431640625 275.154296875 m 0
 737.678710938 275.154296875 738.079101562 275.154296875 738.325195312 275.154296875 c 0
 751.264648438 275.154296875 761.767578125 264.669921875 761.767578125 251.73046875 c 0
 761.767578125 246.322265625 758.643554688 238.850585938 754.795898438 235.05078125 c 0
 654.459960938 133.135742188 548.326171875 55.814453125 387.020507812 2.1015625 c 0
 385.028320312 1.4365234375 381.706054688 0.8984375 379.604492188 0.8984375 c 0
 374.186523438 0.8984375 366.705078125 4.03125 362.903320312 7.8896484375 c 0
 265.580078125 106.556640625 167.91015625 177.864257812 16.5341796875 229.262695312 c 0
 7.4072265625 232.078125 0 242.112304688 0 251.6640625 c 0
 0 264.604492188 10.5009765625 275.10546875 23.44140625 275.10546875 c 0
 25.7666015625 275.10546875 29.4228515625 274.448242188 31.6025390625 273.638671875 c 0
 168.210769562 227.253057681 265.866362699 163.141774354 354.697505302 80.9004590318 c 1
 589.997681897 738.175167104 l 1
 460.158386614 688.219089793 372.042373365 621.615573948 284.396484375 532.587890625 c 0
 280.569335938 528.547851562 272.9453125 525.26953125 267.380859375 525.26953125 c 0
 254.440429688 525.26953125 243.938476562 535.771484375 243.938476562 548.7109375 c 0
 243.938476562 554.16015625 247.102539062 561.671875 251 565.479492188 c 0
 350.194371309 666.235964376 455.0105553 742.908361969 613.245125501 796.539371998 c 0
 617.746179006 801.062664555 624.07203196 804.078124755 630.100585938 804.078125 c 0
 630.296875 804.078125 630.615234375 804.078125 630.810546875 804.078125 c 0
 642.948158479 803.716470632 652.875300071 793.89024289 653.518613058 781.888214684 c 1
 747.379819114 688.747779094 843.371646229 620.788986934 989.21484375 571.267578125 c 0
 998.342773438 568.453125 1005.75097656 558.41796875 1005.75097656 548.8671875 c 0
 1005.75097656 535.926757812 995.249023438 525.42578125 982.30859375 525.42578125 c 0
 979.984375 525.42578125 976.328125 526.083007812 974.147460938 526.891601562 c 0
 830.643013125 575.620660683 730.129384524 643.902544171 637.668798342 732.218155185 c 1
 395.113886249 54.6819485115 l 1
 536.420923843 105.433809542 629.18437623 174.273560227 721.399414062 267.942382812 c 0
 725.020507812 271.723632812 732.202148438 274.955078125 737.431640625 275.154296875 c 0
EndSplineSet
EndChar

StartChar: T
Encoding: 84 84 10
Width: 798
VWidth: 0
Flags: W
HStem: 0.550781 21G<122.865 134.618> 517.865 48.0244<723.874 797.939> 785.408 20G<398.567 403.949>
VStem: 105.086 47.9863<0.748188 17.7461>
LayerCount: 2
Fore
SplineSet
390.601499962 803.171638889 m 0
 393.677543134 804.593755395 396.964090013 805.408202644 400.169921875 805.408203125 c 0
 400.375976562 805.408203125 400.709960938 805.408203125 400.916015625 805.408203125 c 0
 406.98225704 805.227107844 412.521289738 802.789426254 416.728646316 798.924166958 c 0
 417.167330914 798.559190875 417.576842881 798.185330178 417.952148438 797.8046875 c 0
 519.909179688 694.440429688 622.23046875 619.737304688 780.814453125 565.889648438 c 0
 790.375976562 562.942382812 798.13671875 552.428710938 798.13671875 542.422851562 c 0
 798.13671875 528.866210938 787.135742188 517.865234375 773.579101562 517.865234375 c 0
 771.142578125 517.865234375 767.3125 518.5546875 765.029296875 519.401367188 c 0
 613.584046986 570.82551387 507.859806534 643.064205093 410.410151095 736.57905565 c 1
 153.072265625 17.74609375 l 2
 150.08984375 8.2548828125 139.592773438 0.55078125 129.642578125 0.55078125 c 0
 116.087890625 0.55078125 105.0859375 11.5517578125 105.0859375 25.107421875 c 0
 105.0859375 27.7412109375 105.885742188 31.8603515625 106.872070312 34.30078125 c 2
 359.291771112 739.520493642 l 1
 225.040176931 687.322267263 133.474132869 617.893002259 42.384765625 525.368164062 c 0
 38.3740234375 521.13671875 30.3876953125 517.702148438 24.5576171875 517.702148438 c 0
 11.0009765625 517.702148438 0 528.704101562 0 542.258789062 c 0
 0 547.967773438 3.314453125 555.837890625 7.3974609375 559.826171875 c 0
 112.078795234 666.155962201 222.78441677 746.929989972 390.601499962 803.171638889 c 0
EndSplineSet
EndChar

StartChar: Y
Encoding: 89 89 11
Width: 791
VWidth: 0
Flags: W
HStem: 1.48633 21G<205.57 217.033> 752.376 47.5303<723.628 792.069>
VStem: 187.901 47.3545<1.61583 17.5938>
LayerCount: 2
Fore
SplineSet
24.59375 800.188476562 m 0
 30.27734375 800.131835938 38.0732421875 796.747070312 41.9970703125 792.633789062 c 0
 140.116210938 692.96875 238.826171875 620.296875 391.506835938 567.150390625 c 1
 492.87109375 667.719726562 601.110351562 744.676757812 759.950195312 798.610351562 c 0
 762.0546875 799.326171875 765.569335938 799.90625 767.79296875 799.90625 c 0
 781.266601562 799.90625 792.202148438 788.96875 792.202148438 775.495117188 c 0
 792.202148438 765.834960938 784.779296875 755.479492188 775.631835938 752.375976562 c 0
 620.305584309 699.635544883 519.304035638 626.800269469 419.418892398 526.350376153 c 1
 235.255859375 17.59375 l 2
 232.041992188 8.703125 221.760742188 1.486328125 212.305664062 1.486328125 c 0
 198.833984375 1.486328125 187.901367188 12.4189453125 187.901367188 25.888671875 c 0
 187.901367188 28.25 188.552734375 31.9658203125 189.35546875 34.1845703125 c 2
 366.66666917 524.05838335 l 1
 211.737799384 579.537250962 106.747675397 657.371768185 7.2373046875 758.448242188 c 0
 3.2421875 762.401367188 0 770.170898438 0 775.791992188 c 0
 0 789.260742188 10.9296875 800.188476562 24.3974609375 800.188476562 c 0
 24.451171875 800.188476562 24.5400390625 800.188476562 24.59375 800.188476562 c 0
EndSplineSet
EndChar

StartChar: U
Encoding: 85 85 12
Width: 854
VWidth: 0
Flags: HW
HStem: 239.667 48.1504<733.039 802.309> 786 19.998G<297.479 302.485 821.083 826.054>
VStem: 278.921 48.2471<788.852 805.802> 528.949 48.2988<-3.93427 13.1738> 802.579 48.0996<789.287 805.753>
LayerCount: 2
Fore
SplineSet
826.701171875 805.950195312 m 0
 839.936523438 805.5546875 850.678710938 794.485351562 850.678710938 781.244140625 c 0
 850.678710938 778.7890625 849.982421875 774.927734375 849.127929688 772.625 c 2
 659.023065899 241.59872439 l 1
 693.261815576 258.005092057 729.974194695 272.971143539 769.834960938 286.505859375 c 0
 771.967773438 287.229492188 775.526367188 287.817382812 777.779296875 287.817382812 c 0
 791.4296875 287.817382812 802.5078125 276.73828125 802.5078125 263.086914062 c 0
 802.5078125 253.302734375 794.98828125 242.811523438 785.72265625 239.666992188 c 0
 729.101731235 220.441499202 679.606695392 198.580634001 634.726114993 173.729238617 c 1
 577.248046875 13.173828125 l 2
 574.245117188 3.619140625 563.680664062 -4.1337890625 553.666015625 -4.1337890625 c 0
 540.0234375 -4.1337890625 528.94921875 6.9384765625 528.94921875 20.5830078125 c 0
 528.94921875 23.2333984375 529.754882812 27.37890625 530.748046875 29.8359375 c 2
 567.288596093 131.924210513 l 1
 514.669586398 95.6101421252 467.548161694 53.9892245095 420.50390625 6.294921875 c 0
 416.49609375 2.232421875 408.612304688 -1.0654296875 402.90625 -1.0654296875 c 0
 400.701171875 -1.0654296875 397.21484375 -0.5009765625 395.123046875 0.1923828125 c 0
 225.037109375 56.828125 113.126953125 138.35546875 7.33203125 245.818359375 c 0
 3.28515625 249.82421875 0 257.6953125 0 263.387695312 c 0
 0 277.032226562 11.072265625 288.104492188 24.716796875 288.104492188 c 0
 24.7578125 288.104492188 24.82421875 288.104492188 24.8662109375 288.104492188 c 0
 30.6318359375 288.068359375 38.552734375 284.661132812 42.5458984375 280.5 c 0
 58.8267592876 263.962591476 75.1230755075 248.157662701 91.6726602898 233.052345429 c 1
 278.920898438 788.8515625 l 2
 281.96484375 798.318359375 292.506835938 805.998046875 302.450195312 805.998046875 c 0
 302.520507812 805.998046875 302.6328125 805.998046875 302.704101562 805.998046875 c 0
 316.208007812 805.860351562 327.16796875 794.788085938 327.16796875 781.283203125 c 0
 327.16796875 778.947265625 326.537109375 775.263671875 325.760742188 773.060546875 c 2
 132.05859375 198.15625 l 2
 132.052225074 198.135331593 132.045820609 198.114421711 132.039380683 198.093520717 c 0
 205.686989115 137.79883223 287.557523001 89.9819180684 396.624023438 52.0205078125 c 1
 457.078173925 111.999207224 519.929599371 163.688811481 594.235660382 207.209867543 c 1
 802.579101562 789.287109375 l 2
 805.74609375 798.4921875 816.216796875 805.950195312 825.950195312 805.950195312 c 0
 826.157226562 805.950195312 826.493164062 805.950195312 826.701171875 805.950195312 c 0
EndSplineSet
EndChar

StartChar: W
Encoding: 87 87 13
Width: 1230
VWidth: 0
Flags: HW
LayerCount: 2
Fore
SplineSet
709.637695312 586.634765625 m 0
 723.440429688 586.287109375 734.642578125 575.181640625 734.642578125 561.845703125 c 0
 734.642578125 559.3828125 733.920898438 555.509765625 733.032226562 553.202148438 c 2
 606.148410987 208.38118172 l 1
 689.346615885 139.032109475 780.428670896 85.2743164671 904.805538887 43.6393321705 c 1
 1179.05273438 783.536132812 l 2
 1182.34375 792.76953125 1193.21875 800.252929688 1203.32910156 800.252929688 c 0
 1203.53027344 800.252929688 1203.85742188 800.252929688 1204.05859375 800.252929688 c 0
 1217.83496094 799.880859375 1229.01464844 788.775390625 1229.01464844 775.46484375 c 0
 1229.01464844 773.001953125 1228.29296875 769.127929688 1227.40332031 766.8203125 c 2
 944.999023438 4.9189453125 l 2
 941.635742188 -4.158203125 930.8046875 -11.5244140625 920.82421875 -11.5244140625 c 0
 915.210868348 -11.5244140625 910.016434339 -9.78518347841 905.78952906 -6.8339821992 c 0
 905.008555483 -6.9031350165 904.217507077 -6.9384765625 903.41796875 -6.9384765625 c 0
 901.078125 -6.9384765625 897.36328125 -6.3505859375 895.147460938 -5.625 c 0
 768.964692289 35.7569263538 673.167027147 90.4758171236 587.898973956 158.786294535 c 1
 532.084960938 7.10546875 l 2
 528.932617188 -2.4130859375 517.9765625 -10.1376953125 507.630859375 -10.1376953125 c 0
 493.458984375 -10.1376953125 481.958007812 0.970703125 481.958007812 14.658203125 c 0
 481.958007812 17.2509765625 482.752929688 21.3115234375 483.734375 23.724609375 c 2
 546.316301152 193.840159469 l 1
 533.223931785 205.420679805 520.314714807 217.346014441 507.508789062 229.6171875 c 1
 424.281958888 201.64003536 356.300878333 168.326032427 295.751979127 128.632491982 c 1
 332.315429688 29.9697265625 l 2
 333.346679688 27.505859375 334.18359375 23.3466796875 334.18359375 20.6875 c 0
 334.18359375 6.9990234375 322.680664062 -4.109375 308.508789062 -4.109375 c 0
 298.106445312 -4.109375 287.133789062 3.669921875 284.015625 13.25390625 c 2
 252.490036766 98.3071049541 l 1
 213.146131897 68.9035844813 176.397061749 36.3803970331 139.723632812 0.4013671875 c 0
 135.576171875 -3.7734375 127.348632812 -7.228515625 121.360351562 -7.228515625 c 0
 121.317382812 -7.228515625 121.247070312 -7.228515625 121.204101562 -7.228515625 c 0
 107.033203125 -7.228515625 95.53125 3.8818359375 95.53125 17.568359375 c 0
 95.53125 23.28125 98.9423828125 31.177734375 103.146484375 35.1943359375 c 0
 144.986173814 76.2416858854 187.74660152 113.517321556 234.412389701 147.078969144 c 1
 1.611328125 775.155273438 l 2
 0.7216796875 777.46484375 0 781.338867188 0 783.803710938 c 0
 0 797.087890625 11.158203125 808.19140625 24.90625 808.587890625 c 0
 25.1220703125 808.587890625 25.470703125 808.587890625 25.6865234375 808.587890625 c 0
 35.7958984375 808.587890625 46.6708984375 801.10546875 49.9619140625 791.872070312 c 2
 277.988913208 176.564324976 l 1
 343.24478031 218.010795702 416.925237845 252.982507622 505.94921875 281.61328125 c 0
 508.122070312 282.309570312 511.744140625 282.875 514.033203125 282.875 c 0
 519.9609375 282.875 528.149414062 279.567382812 532.3125 275.490234375 c 0
 543.167740771 264.86124805 554.026931532 254.532896482 564.951795126 244.49675481 c 1
 684.631835938 569.821289062 l 2
 687.897460938 579.106445312 698.7890625 586.634765625 708.942382812 586.634765625 c 0
 709.133789062 586.634765625 709.4453125 586.634765625 709.637695312 586.634765625 c 0
EndSplineSet
EndChar

StartChar: K
Encoding: 75 75 14
Width: 794
VWidth: 0
Flags: HW
LayerCount: 2
Fore
SplineSet
13.1875 804.83984375 m 0
 13.58984375 804.83984375 14.2431640625 804.883789062 14.6455078125 804.883789062 c 0
 24.33984375 804.883789062 34.759765625 797.440429688 37.9013671875 788.267578125 c 2
 239.850903615 224.053348339 l 1
 276.692116945 243.472218423 316.500057128 261.084377331 360.275226188 276.909921529 c 1
 542.580078125 786.147460938 l 2
 545.731445312 795.30078125 556.14453125 802.719726562 565.82421875 802.719726562 c 0
 566.016601562 802.719726562 566.330078125 802.719726562 566.522460938 802.719726562 c 0
 579.711914062 802.3515625 590.41796875 791.342773438 590.41796875 778.146484375 c 0
 590.41796875 775.704101562 589.7265625 771.865234375 588.875976562 769.576171875 c 2
 413.246071474 278.983324805 l 1
 514.95342926 176.075678257 617.218562624 101.632011127 775.408203125 47.91796875 c 0
 784.98046875 44.9677734375 792.748046875 34.4423828125 792.748046875 24.4267578125 c 0
 792.748046875 10.8564453125 781.736328125 -0.15625 768.166015625 -0.15625 c 0
 765.7265625 -0.15625 761.892578125 0.5322265625 759.607421875 1.380859375 c 0
 603.021609367 54.5511027446 495.262125449 129.949470964 395.025232968 228.086451438 c 1
 318.470703125 14.244140625 l 2
 315.249023438 5.2470703125 304.879882812 -2.0556640625 295.323242188 -2.0556640625 c 0
 292.573360625 -2.0556640625 289.928471694 -1.60354230157 287.458915339 -0.769620951136 c 0
 286.80052785 -0.822605390331 286.134844038 -0.849611037559 285.462890625 -0.849609375 c 0
 275.501953125 -0.849609375 264.99609375 6.861328125 262.010742188 16.36328125 c 2
 213.298489356 152.432834963 l 1
 147.69007502 111.794634198 91.8636886566 63.8799435258 36.21484375 7.3544921875 c 0
 32.2001953125 3.1201171875 24.2080078125 -0.318359375 18.37109375 -0.318359375 c 0
 4.802734375 -0.318359375 -6.2119140625 10.6953125 -6.2119140625 24.265625 c 0
 -6.2119140625 29.9794921875 -2.8955078125 37.85546875 1.1923828125 41.84765625 c 0
 61.1137972849 102.713371886 123.00697493 155.213503808 196.434303373 199.540125777 c 1
 -8.39453125 771.6953125 l 2
 -9.2529296875 773.993164062 -9.94921875 777.846679688 -9.94921875 780.298828125 c 0
 -9.94921875 793.09375 0.4150390625 804.086914062 13.1875 804.83984375 c 0
256.558199735 177.375874457 m 1
 290.597236441 82.2763301973 l 1
 338.369646757 215.720418066 l 1
 309.22428993 203.822301735 282.108150236 191.062228728 256.558199735 177.375874457 c 1
EndSplineSet
EndChar

StartChar: Q
Encoding: 81 81 15
Width: 884
VWidth: 0
Flags: HW
LayerCount: 2
Fore
SplineSet
26.9697265625 286.583984375 m 0
 32.6826171875 286.536132812 40.5302734375 283.151367188 44.4873046875 279.028320312 c 0
 57.0205078125 266.297851562 69.5615234375 254.00390625 82.224609375 242.131835938 c 1
 239.040039062 677.818359375 l 1
 164.783203125 634.770507812 103.474609375 583.103515625 42.3818359375 521.049804688 c 0
 38.3720703125 516.817382812 30.38671875 513.383789062 24.5576171875 513.383789062 c 0
 11.0009765625 513.383789062 0 524.384765625 0 537.94140625 c 0
 0 543.6484375 3.3134765625 551.516601562 7.39453125 555.506835938 c 0
 83.2431640625 632.548828125 162.251953125 696.174804688 263.858398438 746.7734375 c 1
 264.055664062 747.322265625 l 2
 264.412109375 747.322265625 321.049804688 774.395507812 324.833007812 774.403320312 c 0
 346.408203125 783.2734375 368.977539062 791.654296875 392.684570312 799.548828125 c 0
 394.71484375 800.22265625 398.100585938 800.799804688 400.239257812 800.799804688 c 0
 400.2890625 800.799804688 400.3671875 800.799804688 400.415039062 800.799804688 c 0
 406.0859375 800.799804688 413.919921875 797.5234375 417.90234375 793.485351562 c 0
 519.861328125 690.120117188 622.180664062 615.41796875 780.764648438 561.5703125 c 0
 790.327148438 558.62109375 798.086914062 548.109375 798.086914062 538.102539062 c 0
 798.086914062 524.545898438 787.083984375 513.544921875 773.529296875 513.544921875 c 0
 771.09375 513.544921875 767.262695312 514.233398438 764.979492188 515.08203125 c 0
 747.307617188 521.08203125 730.259765625 527.366210938 713.7734375 533.934570312 c 1
 587.9609375 182.501953125 l 2
 591.012695312 179.688476562 593.349609375 176.112304688 594.668945312 172.075195312 c 0
 670.295898438 110.3984375 754.291992188 61.9033203125 866.409179688 23.833984375 c 0
 875.971679688 20.88671875 883.732421875 10.3720703125 883.732421875 0.3671875 c 0
 883.732421875 -13.189453125 872.73046875 -24.1904296875 859.173828125 -24.1904296875 c 0
 856.739257812 -24.1904296875 852.909179688 -23.5029296875 850.624023438 -22.6552734375 c 0
 734.8984375 16.640625 645.869140625 68.0908203125 566.827148438 131.901367188 c 1
 514.208007812 95.70703125 467.041015625 54.2294921875 420.0546875 6.5927734375 c 0
 416.0703125 2.548828125 408.232421875 -0.732421875 402.55859375 -0.732421875 c 0
 400.356445312 -0.732421875 396.875976562 -0.1669921875 394.7890625 0.529296875 c 0
 331.890625 21.47265625 277 45.84375 227.451171875 73.693359375 c 1
 192.958984375 46.322265625 160.439453125 16.2841796875 127.979492188 -16.6875 c 0
 123.969726562 -20.91796875 115.984375 -24.3525390625 110.155273438 -24.3525390625 c 0
 96.5986328125 -24.3525390625 85.5966796875 -13.3505859375 85.5966796875 0.2041015625 c 0
 85.5966796875 5.912109375 88.9091796875 13.7822265625 92.9921875 17.7705078125 c 0
 122.109375 47.345703125 151.693359375 74.9453125 182.84375 100.588867188 c 1
 118.826171875 141.908203125 63.365234375 189.856445312 9.5 244.571289062 c 0
 5.478515625 248.548828125 2.21484375 256.369140625 2.21484375 262.02734375 c 0
 2.21484375 275.583007812 13.216796875 286.583984375 26.7724609375 286.583984375 c 0
 26.8271484375 286.583984375 26.9150390625 286.583984375 26.9697265625 286.583984375 c 0
485.836914062 263.063476562 m 0
 485.8984375 263.063476562 485.999023438 263.063476562 486.059570312 263.063476562 c 0
 491.73046875 263.063476562 499.56640625 259.786132812 503.546875 255.748046875 c 0
 517.950195312 241.146484375 532.358398438 227.1171875 546.934570312 213.637695312 c 1
 668.53125 553.30078125 l 1
 558.631835938 603.764648438 474.317382812 668.594726562 394.224609375 748.0546875 c 1
 361.666992188 736.724609375 331.546875 724.51171875 303.35546875 711.344726562 c 1
 122.568359375 206.1640625 l 1
 154.415039062 179.2734375 187.663085938 154.8046875 223.9140625 132.536132812 c 1
 295.213867188 184.805664062 376.202148438 227.8203125 478.28125 261.8125 c 0
 480.311523438 262.487304688 483.697265625 263.063476562 485.836914062 263.063476562 c 0
270.794921875 105.891601562 m 1
 308.678710938 86.0146484375 350.017578125 68.126953125 396.28125 52.0234375 c 1
 438.09375 93.5263671875 480.974609375 131.185546875 528.141601562 164.766601562 c 1
 511.756835938 179.376953125 495.705078125 194.55859375 479.821289062 210.318359375 c 1
 397.229492188 181.577148438 330.337890625 147.154296875 270.794921875 105.891601562 c 1
EndSplineSet
EndChar

StartChar: G
Encoding: 71 71 16
Width: 830
VWidth: 0
Flags: HW
LayerCount: 2
Fore
SplineSet
568.602539062 389 m 0
 568.995117188 389 569.630859375 389 570.025390625 389 c 0
 572.416015625 389 576.181640625 388.387695312 578.432617188 387.58203125 c 0
 629.423828125 370.267578125 675.352539062 350.715820312 717.569335938 328.796875 c 0
 745.563476562 314.263671875 771.928710938 298.706054688 797.041992188 282.090820312 c 0
 798.538085938 281.145507812 799.96875 279.904296875 801.283203125 278.462890625 c 0
 806.77734375 273.880859375 810.275390625 266.985351562 810.275390625 259.276367188 c 0
 810.275390625 249.397460938 802.682617188 238.8046875 793.326171875 235.629882812 c 0
 632.16796875 180.91015625 528.1875 105.04296875 424.572265625 0 c 0
 420.525390625 -4.1083984375 412.559570312 -7.443359375 406.791015625 -7.443359375 c 0
 404.555664062 -7.443359375 401.018554688 -6.8681640625 398.896484375 -6.162109375 c 0
 322.994140625 19.111328125 258.575195312 49.2978515625 201.09375 84.482421875 c 1
 173.340820312 6.9443359375 l 2
 170.071289062 -2.1884765625 159.543945312 -9.6025390625 149.842773438 -9.6025390625 c 0
 136.064453125 -9.6025390625 124.881835938 1.580078125 124.881835938 15.3564453125 c 0
 124.881835938 17.748046875 125.536132812 21.517578125 126.342773438 23.7685546875 c 2
 158.125976562 112.565429688 l 1
 103.590820312 150.543945312 54.8916015625 193.606445312 7.4033203125 241.841796875 c 0
 3.31640625 245.885742188 0 253.833007812 0 259.58203125 c 0
 0 273.356445312 11.1796875 284.536132812 24.9560546875 284.536132812 c 0
 24.9970703125 284.536132812 25.10546875 284.536132812 25.10546875 284.536132812 c 2
 30.9287109375 284.536132812 38.9267578125 281.061523438 42.9580078125 276.858398438 c 0
 85.640625 233.502929688 128.427734375 195.131835938 175.521484375 161.1640625 c 1
 382.83984375 740.379882812 l 1
 246.435546875 687.340820312 153.362304688 616.822265625 60.80859375 522.807617188 c 0
 56.734375 518.51171875 48.6201171875 515.022460938 42.6982421875 515.022460938 c 0
 28.921875 515.022460938 17.7421875 526.204101562 17.7421875 539.98046875 c 0
 17.7421875 545.77734375 21.107421875 553.7734375 25.251953125 557.82421875 c 0
 131.6328125 665.881835938 244.135742188 747.965820312 414.677734375 805.12109375 c 0
 417.8046875 806.564453125 421.143554688 807.393554688 424.40234375 807.393554688 c 0
 424.611328125 807.393554688 424.951171875 807.393554688 425.16015625 807.393554688 c 0
 431.321289062 807.209960938 436.9453125 804.735351562 441.219726562 800.8125 c 0
 441.668945312 800.439453125 442.08984375 800.055664062 442.473632812 799.666015625 c 0
 546.0859375 694.625 650.068359375 618.708007812 811.2265625 563.987304688 c 0
 820.943359375 560.991210938 828.829101562 550.306640625 828.829101562 540.138671875 c 0
 828.829101562 526.362304688 817.6484375 515.182617188 803.874023438 515.182617188 c 0
 801.397460938 515.182617188 797.504882812 515.8828125 795.185546875 516.743164062 c 0
 641.288085938 569 533.827148438 642.38671875 434.796875 737.411132812 c 1
 218.231445312 132.365234375 l 1
 271.1015625 99.1240234375 330.170898438 70.619140625 400.4140625 46.16796875 c 1
 493.575195312 138.598632812 592.415039062 211.530273438 729.376953125 265.400390625 c 1
 718.078125 271.975585938 706.495117188 278.352539062 694.584960938 284.536132812 c 0
 654.724609375 305.231445312 611.190429688 323.768554688 562.391601562 340.338867188 c 0
 552.848632812 343.420898438 545.104492188 354.059570312 545.104492188 364.086914062 c 0
 545.104492188 377.079101562 555.631835938 388.241210938 568.602539062 389 c 0
EndSplineSet
EndChar

StartChar: D
Encoding: 68 68 17
Width: 814
VWidth: 0
Flags: HW
LayerCount: 2
Fore
SplineSet
123.813476562 285.4453125 m 0
 129.661132812 285.396484375 137.684570312 281.923828125 141.721679688 277.693359375 c 0
 156.006835938 263.18359375 170.303710938 249.229492188 184.76953125 235.811523438 c 1
 366.30859375 742.876953125 l 1
 229.42578125 689.658203125 136.073242188 618.859375 43.2041015625 524.52734375 c 0
 39.1162109375 520.215820312 30.9765625 516.716796875 25.0361328125 516.716796875 c 0
 11.2158203125 516.716796875 0 527.932617188 0 541.752929688 c 0
 0 547.569335938 3.3759765625 555.58984375 7.5361328125 559.65625 c 0
 114.189453125 667.9921875 226.983398438 750.2578125 397.896484375 807.58984375 c 0
 401.124023438 809.133789062 404.59375 810.021484375 407.9765625 810.021484375 c 0
 408.16796875 810.021484375 408.479492188 810.021484375 408.670898438 810.021484375 c 0
 415.323242188 809.840820312 421.354492188 807.002929688 425.751953125 802.553710938 c 0
 425.850585938 802.458984375 425.9453125 802.365234375 426.0390625 802.26953125 c 0
 487.181640625 740.282226562 548.453125 688.408203125 621.452148438 645.0234375 c 0
 628.755859375 644.5 636.241210938 640.049804688 640.674804688 633.94921875 c 0
 686.755859375 608.2265625 737.62890625 585.6484375 795.969726562 565.837890625 c 0
 805.717773438 562.831054688 813.629882812 552.114257812 813.629882812 541.912109375 c 0
 813.629882812 528.09375 802.4140625 516.876953125 788.59375 516.876953125 c 0
 786.110351562 516.876953125 782.206054688 517.579101562 779.877929688 518.443359375 c 0
 739.073242188 532.298828125 701.524414062 547.633789062 666.529296875 564.4609375 c 1
 791.309570312 215.923828125 l 2
 792.208984375 213.553710938 792.938476562 209.572265625 792.938476562 207.038085938 c 0
 792.938476562 193.217773438 781.723632812 182.001953125 767.903320312 182.001953125 c 0
 767.05859375 182.001953125 766.208007812 182.057617188 765.358398438 182.1640625 c 0
 671.639648438 134.053710938 597.932617188 74.3876953125 524.556640625 0 c 0
 520.498046875 -4.1162109375 512.51171875 -7.4560546875 506.731445312 -7.4560546875 c 0
 504.499023438 -7.4560546875 500.966796875 -6.8857421875 498.84765625 -6.181640625 c 0
 379.116210938 33.685546875 287.846679688 85.708984375 207.336914062 150.2734375 c 1
 156.047851562 7.015625 l 2
 152.766601562 -2.1484375 142.206054688 -9.5859375 132.473632812 -9.5859375 c 0
 118.651367188 -9.5859375 107.434570312 1.6328125 107.434570312 15.455078125 c 0
 107.434570312 17.8544921875 108.090820312 21.6337890625 108.8984375 23.8935546875 c 2
 166.516601562 184.831054688 l 1
 145.926757812 203.178710938 125.883789062 222.421875 106.052734375 242.565429688 c 0
 101.92578125 246.625 98.576171875 254.620117188 98.576171875 260.41015625 c 0
 98.576171875 274.23046875 109.79296875 285.4453125 123.61328125 285.4453125 c 0
 123.66796875 285.4453125 123.758789062 285.4453125 123.813476562 285.4453125 c 0
600.805664062 599.469726562 m 1
 532.807617188 639.440429688 474.271484375 686.188476562 418.3984375 739.8046875 c 1
 225.197265625 200.158203125 l 1
 301.637695312 136.301757812 386.287109375 85.9990234375 500.270507812 46.3154296875 c 1
 570.80078125 116.321289062 644.469726562 175.301757812 735.568359375 223.09375 c 1
 600.805664062 599.469726562 l 1
EndSplineSet
EndChar

StartChar: V
Encoding: 86 86 18
Width: 905
VWidth: 0
Flags: HW
LayerCount: 2
Fore
SplineSet
881.626953125 801.108398438 m 0
 894.95703125 800.720703125 905.778320312 789.579101562 905.778320312 776.243164062 c 0
 905.778320312 773.756835938 905.069335938 769.84765625 904.198242188 767.51953125 c 2
 717.095703125 245.553710938 l 2
 714.075195312 235.9375 703.442382812 228.1328125 693.36328125 228.1328125 c 0
 689.885742188 228.1328125 686.575195312 228.84765625 683.568359375 230.137695312 c 0
 527.630859375 175.9375 427.092773438 101.721679688 326.94921875 0 c 0
 324.720703125 -2.2666015625 321.30078125 -4.2978515625 317.71484375 -5.6630859375 c 0
 313.153320312 -10.8955078125 306.439453125 -14.203125 298.958984375 -14.203125 c 0
 288.879882812 -14.203125 278.247070312 -6.3984375 275.225585938 3.2177734375 c 2
 1.591796875 767.51953125 l 2
 0.712890625 769.857421875 0 773.748046875 0 776.243164062 c 0
 0 789.200195312 10.49609375 800.356445312 23.431640625 801.108398438 c 0
 23.8330078125 801.108398438 24.486328125 801.108398438 24.8896484375 801.108398438 c 0
 34.72265625 801.108398438 45.2724609375 793.596679688 48.439453125 784.290039062 c 2
 310.048828125 53.4501953125 l 1
 410.147460938 151.461914062 518.235351562 226.799804688 676.771484375 280.396484375 c 1
 857.349609375 784.338867188 l 2
 860.538085938 793.6015625 871.075195312 801.108398438 880.87109375 801.108398438 c 0
 881.080078125 801.108398438 881.41796875 801.108398438 881.626953125 801.108398438 c 0
EndSplineSet
EndChar

StartChar: S
Encoding: 83 83 20
Width: 814
VWidth: 0
Flags: HW
LayerCount: 2
Fore
SplineSet
405.432617188 800.62109375 m 0
 405.481445312 800.62109375 405.560546875 800.62109375 405.610351562 800.62109375 c 0
 411.354492188 800.62109375 419.291015625 797.301757812 423.323242188 793.2109375 c 0
 526.60546875 688.50390625 630.2578125 612.83203125 790.8984375 558.28515625 c 0
 800.584960938 555.297851562 808.4453125 544.6484375 808.4453125 534.51171875 c 0
 808.4453125 520.78125 797.301757812 509.635742188 783.569335938 509.635742188 c 0
 781.1015625 509.635742188 777.22265625 510.333007812 774.908203125 511.192382812 c 0
 612.970703125 566.1796875 502.682617188 644.662109375 399.338867188 747.19140625 c 1
 324.916015625 721.29296875 263.076171875 690.840820312 207.868164062 655.006835938 c 1
 420.15625 62.0537109375 l 1
 518.86328125 156.766601562 625.950195312 229.932617188 779.344726562 282.018554688 c 0
 781.491210938 282.747070312 785.07421875 283.337890625 787.33984375 283.337890625 c 0
 801.080078125 283.337890625 812.229492188 272.186523438 812.229492188 258.448242188 c 0
 812.229492188 248.600585938 804.661132812 238.040039062 795.334960938 234.877929688 c 0
 634.69140625 180.331054688 531.04296875 104.70703125 427.759765625 0 c 0
 426.583984375 -1.1923828125 425.075195312 -2.3203125 423.387695312 -3.3212890625 c 0
 419.908203125 -5.62109375 415.81640625 -7.0703125 411.41015625 -7.3701171875 c 0
 410.9453125 -7.408203125 410.490234375 -7.4287109375 410.048828125 -7.4287109375 c 0
 410 -7.4287109375 409.951171875 -7.4267578125 409.900390625 -7.4267578125 c 0
 409.833984375 -7.4267578125 409.764648438 -7.4287109375 409.698242188 -7.4287109375 c 0
 407.881835938 -7.4287109375 406.0390625 -7.16796875 404.219726562 -6.6845703125 c 0
 403.482421875 -6.5185546875 402.794921875 -6.333984375 402.21484375 -6.142578125 c 0
 231.034179688 50.8583984375 118.401367188 132.86328125 11.9228515625 241.01953125 c 0
 7.8212890625 245.053710938 4.494140625 252.999023438 4.494140625 258.750976562 c 0
 4.494140625 272.483398438 15.6376953125 283.627929688 29.3701171875 283.627929688 c 0
 29.4248046875 283.627929688 29.5146484375 283.627929688 29.5703125 283.627929688 c 0
 35.3818359375 283.579101562 43.3525390625 280.127929688 47.36328125 275.924804688 c 0
 139.633789062 182.200195312 232.397460938 111.89453125 368.391601562 59.0224609375 c 1
 165.581054688 625.60546875 l 1
 122.342773438 593.491210938 82.58984375 557.526367188 42.9287109375 517.237304688 c 0
 38.8671875 512.953125 30.779296875 509.477539062 24.8759765625 509.477539062 c 0
 11.1435546875 509.477539062 0 520.62109375 0 534.353515625 c 0
 0 540.1328125 3.3544921875 548.102539062 7.4873046875 552.142578125 c 0
 52.02734375 597.383789062 97.6435546875 638.05859375 148.170898438 674.243164062 c 1
 112.688476562 773.370117188 l 2
 111.811523438 775.705078125 111.098632812 779.627929688 111.098632812 782.124023438 c 0
 111.098632812 795.080078125 121.594726562 806.206054688 134.528320312 806.958984375 c 0
 134.918945312 806.958984375 135.549804688 806.958984375 135.939453125 806.958984375 c 0
 145.770507812 806.958984375 156.3203125 799.4453125 159.48828125 790.139648438 c 2
 190.729492188 702.875976562 l 1
 250.518554688 740.583007812 317.750976562 772.706054688 397.778320312 799.353515625 c 0
 399.834960938 800.036132812 403.264648438 800.62109375 405.432617188 800.62109375 c 0
EndSplineSet
EndChar

StartChar: R
Encoding: 82 82 22
Width: 820
VWidth: 0
Flags: HW
LayerCount: 2
Fore
SplineSet
413.388671875 795.873046875 m 0
 413.436523438 795.873046875 413.514648438 795.873046875 413.5625 795.873046875 c 0
 419.225585938 795.873046875 427.047851562 792.6015625 431.024414062 788.569335938 c 0
 532.763671875 685.42578125 634.865234375 610.864257812 793.03515625 557.104492188 c 0
 805.37890625 555.833007812 815.014648438 545.393554688 815.014648438 532.71484375 c 0
 815.014648438 522.723632812 807.266601562 512.225585938 797.71875 509.282226562 c 0
 648.026367188 458.454101562 548.5390625 389.015625 452.100585938 294.379882812 c 1
 546.016601562 32.16015625 l 2
 546.807617188 29.9462890625 547.450195312 26.2451171875 547.450195312 23.89453125 c 0
 547.450195312 10.357421875 536.463867188 -0.62890625 522.926757812 -0.62890625 c 0
 513.393554688 -0.62890625 503.048828125 6.654296875 499.836914062 15.6298828125 c 2
 407.90625 272.4296875 l 1
 314.928710938 303.611328125 239.514648438 342.338867188 172.936523438 388.788085938 c 1
 39.3408203125 15.6298828125 l 2
 36.361328125 6.1513671875 25.880859375 -1.5419921875 15.9462890625 -1.5419921875 c 0
 2.41015625 -1.5419921875 -8.57421875 9.4443359375 -8.57421875 22.98046875 c 0
 -8.57421875 25.6083984375 -7.775390625 29.7216796875 -6.7900390625 32.16015625 c 2
 131.790039062 419.303710938 l 1
 96.4150390625 447.124023438 63.2275390625 477.372070312 30.703125 510.080078125 c 0
 20.8662109375 513.270507812 13.748046875 522.513671875 13.748046875 533.41015625 c 0
 13.748046875 539.107421875 17.052734375 546.962890625 21.126953125 550.9453125 c 0
 87.423828125 618.287109375 156.140625 675.362304688 240.295898438 722.432617188 c 1
 262.885742188 785.541992188 l 2
 266.014648438 794.69921875 276.409179688 802.120117188 286.087890625 802.120117188 c 0
 286.287109375 802.120117188 286.61328125 802.120117188 286.814453125 802.120117188 c 0
 299.956054688 801.737304688 310.620117188 790.755859375 310.620117188 777.610351562 c 0
 310.620117188 775.157226562 309.923828125 771.305664062 309.063476562 769.01171875 c 2
 303.936523438 754.69140625 l 1
 335.553710938 769.1640625 369.349609375 782.47265625 405.842773438 794.624023438 c 0
 407.870117188 795.296875 411.25 795.873046875 413.388671875 795.873046875 c 0
719.403320312 532.244140625 m 1
 590.583984375 584.717773438 496.372070312 654.91796875 407.380859375 743.20703125 c 1
 360.426757812 726.8671875 318.553710938 708.6875 280.223632812 688.45703125 c 1
 190.03515625 436.544921875 l 1
 252.1015625 391.689453125 321.764648438 354.642578125 409.014648438 324.015625 c 0
 411.115234375 325.4375 413.446289062 326.541015625 415.94140625 327.260742188 c 0
 502.688476562 412.600585938 594.831054688 480.807617188 719.403320312 532.244140625 c 1
74.8642578125 535.290039062 m 1
 99.1884765625 511.2734375 123.706054688 488.877929688 149.216796875 467.991210938 c 1
 214.153320312 649.40234375 l 1
 163.76953125 616.2109375 118.922851562 578.392578125 74.8642578125 535.290039062 c 1
EndSplineSet
EndChar

StartChar: X
Encoding: 88 88 23
Width: 404
VWidth: 0
Flags: HW
LayerCount: 2
Fore
SplineSet
288.806640625 805.493164062 m 0
 302.078125 805.122070312 312.84765625 794.045898438 312.84765625 780.76953125 c 0
 312.84765625 778.313476562 312.15234375 774.44921875 311.295898438 772.146484375 c 2
 223.576171875 527.123046875 l 1
 399.798828125 34.8857421875 l 2
 400.598632812 32.6552734375 401.247070312 28.919921875 401.247070312 26.5498046875 c 0
 401.247070312 12.89453125 390.1640625 1.8134765625 376.509765625 1.8134765625 c 0
 366.89453125 1.8134765625 356.461914062 9.1591796875 353.221679688 18.212890625 c 2
 197.301757812 453.733398438 l 1
 74.041015625 109.431640625 l 1
 39.240234375 12.2021484375 l 2
 36 3.1474609375 25.5654296875 -4.201171875 15.94921875 -4.201171875 c 0
 2.294921875 -4.201171875 -8.7880859375 6.8818359375 -8.7880859375 20.5361328125 c 0
 -8.7880859375 22.90625 -8.138671875 26.6435546875 -7.33984375 28.8759765625 c 2
 27.4619140625 126.104492188 l 1
 171.028320312 527.123046875 l 1
 115.96484375 680.928710938 l 1
 81.166015625 778.108398438 l 2
 80.2919921875 780.431640625 79.5830078125 784.331054688 79.5830078125 786.811523438 c 0
 79.5830078125 799.694335938 90.0205078125 810.755859375 102.879882812 811.50390625 c 0
 103.279296875 811.50390625 103.9296875 811.50390625 104.329101562 811.50390625 c 0
 114.104492188 811.50390625 124.59375 804.03515625 127.744140625 794.782226562 c 2
 162.544921875 697.6015625 l 1
 197.303710938 600.513671875 l 1
 264.717773438 788.8203125 l 2
 267.887695312 798.029296875 278.364257812 805.493164062 288.103515625 805.493164062 c 0
 288.297851562 805.493164062 288.612304688 805.493164062 288.806640625 805.493164062 c 0
EndSplineSet
EndChar

StartChar: B
Encoding: 66 66 24
Width: 795
VWidth: 0
Flags: HW
LayerCount: 2
Fore
SplineSet
388.120117188 528.872070312 m 0
 390.197265625 528.872070312 393.484375 528.255859375 395.456054688 527.600585938 c 0
 448.127929688 510.061523438 495.2734375 490.158203125 538.412109375 467.860351562 c 1
 587.540039062 605.044921875 l 1
 525.125976562 643.1015625 470.759765625 687.192382812 418.645507812 737.248046875 c 1
 326.265625 479.212890625 l 1
 340.883789062 492.732421875 355.340820312 506.799804688 369.780273438 521.438476562 c 0
 373.827148438 525.544921875 381.790039062 528.872070312 387.555664062 528.872070312 c 0
 387.711914062 528.872070312 387.963867188 528.872070312 388.120117188 528.872070312 c 0
620.033203125 644.780273438 m 0
 633.408203125 644.388671875 644.260742188 633.213867188 644.260742188 619.834960938 c 0
 644.260742188 617.338867188 643.55078125 613.418945312 642.676757812 611.083984375 c 2
 582.655273438 443.353515625 l 1
 659.899414062 397.590820312 724.506835938 343.076171875 786.999023438 279.596679688 c 0
 791.145507812 275.543945312 794.510742188 267.548828125 794.510742188 261.750976562 c 0
 794.510742188 260.02734375 794.334960938 258.342773438 794.001953125 256.716796875 c 0
 792.848632812 247.62890625 785.767578125 238.529296875 777.217773438 235.629882812 c 0
 616.05859375 180.909179688 512.079101562 105.04296875 408.46484375 0 c 0
 404.41796875 -4.109375 396.452148438 -7.4443359375 390.684570312 -7.4443359375 c 0
 388.448242188 -7.4443359375 384.91015625 -6.8701171875 382.7890625 -6.162109375 c 0
 306.875976562 19.1162109375 242.440429688 49.2958984375 184.942382812 84.4765625 c 1
 157.184570312 6.9443359375 l 2
 154.154296875 -2.7021484375 143.48828125 -10.53125 133.376953125 -10.53125 c 0
 119.600585938 -10.53125 108.420898438 0.6494140625 108.420898438 14.42578125 c 0
 108.420898438 17.1005859375 109.233398438 21.2861328125 110.234375 23.7685546875 c 2
 142.005859375 112.525390625 l 1
 87.4521484375 150.497070312 38.73828125 193.55078125 -8.75390625 241.79296875 c 0
 -12.8681640625 245.83984375 -16.2080078125 253.809570312 -16.2080078125 259.581054688 c 0
 -16.2080078125 273.356445312 -5.0283203125 284.536132812 8.748046875 284.536132812 c 0
 8.81640625 284.536132812 8.9296875 284.536132812 8.9990234375 284.536132812 c 0
 14.828125 284.487304688 22.8251953125 281.026367188 26.849609375 276.809570312 c 0
 69.5322265625 233.454101562 112.31640625 195.092773438 159.405273438 161.13671875 c 1
 366.77734375 740.46484375 l 1
 230.330078125 687.416015625 137.2734375 616.840820312 44.69921875 522.807617188 c 0
 40.623046875 518.499023438 32.5009765625 515.000976562 26.5703125 515.000976562 c 0
 12.7939453125 515.000976562 1.6142578125 526.182617188 1.6142578125 539.958984375 c 0
 1.6142578125 545.764648438 4.98828125 553.770507812 9.1455078125 557.82421875 c 0
 115.459960938 665.814453125 227.889648438 747.817382812 398.2578125 804.966796875 c 0
 401.475585938 806.506835938 404.936523438 807.393554688 408.310546875 807.393554688 c 0
 408.515625 807.393554688 408.846679688 807.393554688 409.051757812 807.393554688 c 0
 415.641601562 807.201171875 421.619140625 804.389648438 425.98828125 799.98828125 c 0
 426.100585938 799.881835938 426.208984375 799.774414062 426.315429688 799.666015625 c 0
 486.438476562 738.71484375 546.845703125 687.630859375 618.26953125 644.750976562 c 0
 618.626953125 644.770507812 618.985351562 644.780273438 619.340820312 644.780273438 c 0
 619.532226562 644.780273438 619.842773438 644.780273438 620.033203125 644.780273438 c 0
725.616210938 270.166015625 m 1
 633.40625 359.09375 536.790039062 425.517578125 394.038085938 475.221679688 c 1
 361.33203125 442.752929688 328.010742188 412.59765625 292.5078125 384.923828125 c 1
 202.086914062 132.365234375 l 1
 254.961914062 99.125 314.041015625 70.625 384.303710938 46.16796875 c 1
 480.23828125 141.34375 582.208984375 215.861328125 725.616210938 270.166015625 c 1
EndSplineSet
EndChar

StartChar: P
Encoding: 80 80 25
Width: 810
VWidth: 0
Flags: HW
LayerCount: 2
Fore
SplineSet
398.204101562 803.293945312 m 0
 400.307617188 803.293945312 403.633789062 802.678710938 405.627929688 802.015625 c 0
 578.25 744.53515625 691.830078125 661.83984375 799.204101562 552.7734375 c 0
 801.745117188 550.189453125 803.981445312 546.038085938 805.264648438 541.8984375 c 0
 806.426757812 539.008789062 807.06640625 535.854492188 807.06640625 532.549804688 c 0
 807.06640625 522.329101562 799.139648438 511.58984375 789.372070312 508.578125 c 0
 627.376953125 453.572265625 522.856445312 377.262695312 418.704101562 271.67578125 c 0
 414.635742188 267.544921875 406.62890625 264.192382812 400.831054688 264.192382812 c 0
 398.583984375 264.192382812 395.02734375 264.770507812 392.89453125 265.481445312 c 0
 315.735351562 291.174804688 250.370117188 321.916015625 192.084960938 357.799804688 c 1
 62.8828125 -3.080078125 l 2
 59.5966796875 -12.2626953125 49.0146484375 -19.71484375 39.2626953125 -19.71484375 c 0
 25.4140625 -19.71484375 14.1728515625 -8.474609375 14.1728515625 5.375 c 0
 14.1728515625 7.77734375 14.830078125 11.56640625 15.6416015625 13.830078125 c 2
 148.939453125 386.155273438 l 1
 94.8798828125 424.005859375 46.5 466.84765625 -0.681640625 514.772460938 c 0
 -4.7890625 518.8359375 -8.123046875 526.82421875 -8.123046875 532.603515625 c 0
 -8.123046875 546.450195312 3.115234375 557.689453125 16.962890625 557.689453125 c 0
 17.005859375 557.689453125 17.115234375 557.689453125 17.115234375 557.689453125 c 2
 22.9677734375 557.689453125 31.005859375 554.194335938 35.05859375 549.971679688 c 0
 77.3974609375 506.96484375 119.836914062 468.83984375 166.438476562 435.036132812 c 1
 291.576171875 784.563476562 l 2
 294.779296875 793.931640625 305.413085938 801.5234375 315.314453125 801.5234375 c 0
 315.518554688 801.5234375 315.8515625 801.5234375 316.057617188 801.5234375 c 0
 329.500976562 801.130859375 340.412109375 789.897460938 340.412109375 776.447265625 c 0
 340.412109375 773.940429688 339.697265625 770 338.818359375 767.65234375 c 2
 332.541992188 750.119140625 l 1
 348.4453125 764.703125 364.142578125 779.926757812 379.8203125 795.821289062 c 0
 383.887695312 799.947265625 391.891601562 803.293945312 397.686523438 803.293945312 c 0
 397.829101562 803.293945312 398.061523438 803.293945312 398.204101562 803.293945312 c 0
737.502929688 543.244140625 m 1
 644.806640625 632.66015625 547.721679688 699.442382812 404.203125 749.4140625 c 1
 370.31640625 715.774414062 335.786132812 684.565429688 298.864257812 656.05078125 c 1
 209.321289062 405.947265625 l 1
 262.967773438 372.009765625 322.9375 342.9609375 394.418945312 318.083007812 c 1
 490.85546875 413.762695312 593.34375 488.65625 737.502929688 543.244140625 c 1
EndSplineSet
EndChar

StartChar: J
Encoding: 74 74 26
Width: 877
VWidth: 0
Flags: HW
LayerCount: 2
Fore
SplineSet
25.1875 277.840820312 m 2
 31.029296875 277.840820312 39.05078125 274.354492188 43.095703125 270.137695312 c 0
 143.788085938 167.859375 245.046875 93.248046875 401.740234375 38.7099609375 c 1
 467.27734375 103.733398438 535.610351562 159.133789062 617.969726562 205.069335938 c 1
 825.985351562 786.12890625 l 2
 829.193359375 795.450195312 839.799804688 803.005859375 849.658203125 803.005859375 c 0
 849.854492188 803.005859375 850.171875 803.005859375 850.368164062 803.005859375 c 0
 863.776367188 802.60546875 874.657226562 791.39453125 874.657226562 777.982421875 c 0
 874.657226562 775.494140625 873.952148438 771.583007812 873.0859375 769.250976562 c 2
 682.90234375 237.913085938 l 1
 713.166015625 251.744140625 745.330078125 264.51171875 779.817382812 276.221679688 c 0
 782.145507812 277.086914062 786.049804688 277.7890625 788.534179688 277.7890625 c 0
 802.354492188 277.7890625 813.569335938 266.573242188 813.569335938 252.752929688 c 0
 813.569335938 242.55078125 805.658203125 231.833984375 795.91015625 228.827148438 c 0
 745.138671875 211.587890625 700.022460938 192.250976562 658.798828125 170.572265625 c 1
 597.747070312 0 l 2
 594.465820312 -9.162109375 583.905273438 -16.599609375 574.171875 -16.599609375 c 0
 560.350585938 -16.599609375 549.131835938 -5.3818359375 549.131835938 8.4384765625 c 0
 549.131835938 10.837890625 549.790039062 14.619140625 550.59765625 16.8779296875 c 2
 591.434570312 130.946289062 l 1
 531.265625 91.556640625 478.575195312 45.716796875 425.979492188 -7.6044921875 c 0
 421.921875 -11.7060546875 413.948242188 -15.0341796875 408.178710938 -15.0341796875 c 0
 405.922851562 -15.0341796875 402.358398438 -14.453125 400.219726562 -13.7373046875 c 0
 227.942382812 43.62890625 114.588867188 126.161132812 7.4267578125 235.009765625 c 0
 3.3271484375 239.06640625 0 247.0390625 0 252.806640625 c 0
 0 266.625976562 11.2158203125 277.840820312 25.0361328125 277.840820312 c 0
 25.078125 277.840820312 25.1875 277.840820312 25.1875 277.840820312 c 2
EndSplineSet
EndChar

StartChar: Z
Encoding: 90 90 27
Width: 916
VWidth: 0
Flags: HW
LayerCount: 2
Fore
SplineSet
24.865234375 800.236328125 m 2
 30.6318359375 800.236328125 38.552734375 796.791992188 42.5458984375 792.630859375 c 0
 141.947265625 691.663085938 241.947265625 617.991210938 396.623046875 564.151367188 c 1
 499.311523438 666.034179688 608.966796875 743.998046875 769.883789062 798.637695312 c 0
 772.016601562 799.361328125 775.575195312 799.948242188 777.827148438 799.948242188 c 0
 791.477539062 799.948242188 802.557617188 788.868164062 802.557617188 775.217773438 c 0
 802.557617188 765.43359375 795.036132812 754.940429688 785.771484375 751.798828125 c 0
 693.936523438 720.6171875 620.850585938 682.502929688 555.791992188 635.940429688 c 0
 555.5625 634.952148438 555.296875 634.028320312 555.013671875 633.271484375 c 2
 366.737304688 107.333007812 l 1
 408.553710938 84.3662109375 454.520507812 63.943359375 506.721679688 45.7734375 c 1
 609.40625 147.646484375 719.07421875 225.575195312 879.982421875 280.2109375 c 0
 882.280273438 281.064453125 886.135742188 281.756835938 888.587890625 281.756835938 c 0
 902.23046875 281.756835938 913.3046875 270.68359375 913.3046875 257.040039062 c 0
 913.3046875 246.96875 905.494140625 236.38671875 895.870117188 233.419921875 c 0
 736.254882812 179.223632812 633.271484375 104.036132812 530.651367188 0 c 0
 526.645507812 -4.05078125 518.771484375 -7.3369140625 513.077148438 -7.3369140625 c 0
 510.850585938 -7.3369140625 507.331054688 -6.7626953125 505.221679688 -6.0546875 c 0
 335.135742188 50.5810546875 223.227539062 132.060546875 117.428710938 239.5234375 c 0
 113.3828125 243.52734375 110.098632812 251.399414062 110.098632812 257.092773438 c 0
 110.098632812 270.737304688 121.170898438 281.809570312 134.815429688 281.809570312 c 0
 134.870117188 281.809570312 134.958984375 281.809570312 135.013671875 281.809570312 c 0
 140.779296875 281.809570312 148.700195312 278.366210938 152.69140625 274.205078125 c 0
 206.55859375 219.490234375 260.584960938 172.806640625 323.39453125 132.94921875 c 1
 482.467773438 577.311523438 l 1
 461.516601562 558.791992188 441.026367188 539.18359375 420.55078125 518.426757812 c 0
 416.54296875 514.356445312 408.653320312 511.053710938 402.94140625 511.053710938 c 0
 400.7265625 511.053710938 397.22265625 511.623046875 395.12109375 512.323242188 c 0
 225.037109375 568.958984375 113.12890625 650.487304688 7.33203125 757.950195312 c 0
 3.28515625 761.954101562 0 769.825195312 0 775.51953125 c 0
 0 789.163085938 11.072265625 800.236328125 24.716796875 800.236328125 c 0
 24.7578125 800.236328125 24.865234375 800.236328125 24.865234375 800.236328125 c 2
EndSplineSet
EndChar
